<mxfile host="app.diagrams.net" modified="2023-09-22T01:47:30.692Z" agent="Mozilla/5.0 (X11; Ubuntu; Linux x86_64; rv:109.0) Gecko/20100101 Firefox/117.0" etag="hVC4A9WusO3Edj78hzEU" version="21.8.0" type="github">
  <diagram name="第 1 页" id="lK2Q67L2vVut80mYS6VW">
    <mxGraphModel dx="939" dy="548" grid="1" gridSize="10" guides="1" tooltips="1" connect="1" arrows="1" fold="1" page="1" pageScale="1" pageWidth="827" pageHeight="1169" math="0" shadow="0">
      <root>
        <mxCell id="0" />
        <mxCell id="1" parent="0" />
        <mxCell id="uqFS4wO_pfEfOHFFvcug-5" value="" style="edgeStyle=orthogonalEdgeStyle;rounded=0;orthogonalLoop=1;jettySize=auto;html=1;" edge="1" parent="1" source="uqFS4wO_pfEfOHFFvcug-1" target="uqFS4wO_pfEfOHFFvcug-4">
          <mxGeometry relative="1" as="geometry" />
        </mxCell>
        <mxCell id="uqFS4wO_pfEfOHFFvcug-1" value="FASTQ" style="rounded=1;whiteSpace=wrap;html=1;" vertex="1" parent="1">
          <mxGeometry x="370" y="130" width="60" height="30" as="geometry" />
        </mxCell>
        <mxCell id="uqFS4wO_pfEfOHFFvcug-2" value="" style="endArrow=classic;html=1;rounded=0;exitX=0.25;exitY=1;exitDx=0;exitDy=0;entryX=0.5;entryY=0;entryDx=0;entryDy=0;" edge="1" parent="1" source="uqFS4wO_pfEfOHFFvcug-1" target="uqFS4wO_pfEfOHFFvcug-3">
          <mxGeometry width="50" height="50" relative="1" as="geometry">
            <mxPoint x="406" y="440" as="sourcePoint" />
            <mxPoint x="296" y="240" as="targetPoint" />
          </mxGeometry>
        </mxCell>
        <mxCell id="uqFS4wO_pfEfOHFFvcug-9" value="" style="edgeStyle=orthogonalEdgeStyle;rounded=0;orthogonalLoop=1;jettySize=auto;html=1;" edge="1" parent="1" source="uqFS4wO_pfEfOHFFvcug-3" target="uqFS4wO_pfEfOHFFvcug-8">
          <mxGeometry relative="1" as="geometry" />
        </mxCell>
        <mxCell id="uqFS4wO_pfEfOHFFvcug-3" value="Methylation" style="rounded=1;whiteSpace=wrap;html=1;" vertex="1" parent="1">
          <mxGeometry x="279" y="240" width="80" height="20" as="geometry" />
        </mxCell>
        <mxCell id="uqFS4wO_pfEfOHFFvcug-11" value="" style="edgeStyle=orthogonalEdgeStyle;rounded=0;orthogonalLoop=1;jettySize=auto;html=1;" edge="1" parent="1" source="uqFS4wO_pfEfOHFFvcug-4" target="uqFS4wO_pfEfOHFFvcug-10">
          <mxGeometry relative="1" as="geometry" />
        </mxCell>
        <mxCell id="uqFS4wO_pfEfOHFFvcug-4" value="SV" style="whiteSpace=wrap;html=1;rounded=1;" vertex="1" parent="1">
          <mxGeometry x="383" y="240" width="34" height="25" as="geometry" />
        </mxCell>
        <mxCell id="uqFS4wO_pfEfOHFFvcug-6" value="" style="endArrow=classic;html=1;rounded=0;exitX=0.75;exitY=1;exitDx=0;exitDy=0;" edge="1" parent="1" source="uqFS4wO_pfEfOHFFvcug-1" target="uqFS4wO_pfEfOHFFvcug-7">
          <mxGeometry width="50" height="50" relative="1" as="geometry">
            <mxPoint x="436" y="230" as="sourcePoint" />
            <mxPoint x="496" y="240" as="targetPoint" />
          </mxGeometry>
        </mxCell>
        <mxCell id="uqFS4wO_pfEfOHFFvcug-13" value="" style="edgeStyle=orthogonalEdgeStyle;rounded=0;orthogonalLoop=1;jettySize=auto;html=1;" edge="1" parent="1" source="uqFS4wO_pfEfOHFFvcug-7" target="uqFS4wO_pfEfOHFFvcug-12">
          <mxGeometry relative="1" as="geometry" />
        </mxCell>
        <mxCell id="uqFS4wO_pfEfOHFFvcug-7" value="Tandem" style="rounded=1;whiteSpace=wrap;html=1;" vertex="1" parent="1">
          <mxGeometry x="450" y="240" width="60" height="20" as="geometry" />
        </mxCell>
        <mxCell id="uqFS4wO_pfEfOHFFvcug-8" value="Result 1" style="rounded=1;whiteSpace=wrap;html=1;" vertex="1" parent="1">
          <mxGeometry x="289" y="340" width="60" height="30" as="geometry" />
        </mxCell>
        <mxCell id="uqFS4wO_pfEfOHFFvcug-16" value="" style="edgeStyle=orthogonalEdgeStyle;rounded=0;orthogonalLoop=1;jettySize=auto;html=1;" edge="1" parent="1" source="uqFS4wO_pfEfOHFFvcug-10" target="uqFS4wO_pfEfOHFFvcug-15">
          <mxGeometry relative="1" as="geometry" />
        </mxCell>
        <mxCell id="uqFS4wO_pfEfOHFFvcug-10" value="Result2" style="whiteSpace=wrap;html=1;rounded=1;" vertex="1" parent="1">
          <mxGeometry x="374.5" y="340" width="51" height="30" as="geometry" />
        </mxCell>
        <mxCell id="uqFS4wO_pfEfOHFFvcug-12" value="Result 3" style="rounded=1;whiteSpace=wrap;html=1;" vertex="1" parent="1">
          <mxGeometry x="455" y="340" width="50" height="30" as="geometry" />
        </mxCell>
        <mxCell id="uqFS4wO_pfEfOHFFvcug-14" value="" style="endArrow=classic;html=1;rounded=0;exitX=0.5;exitY=1;exitDx=0;exitDy=0;entryX=0.25;entryY=0;entryDx=0;entryDy=0;" edge="1" parent="1" source="uqFS4wO_pfEfOHFFvcug-8" target="uqFS4wO_pfEfOHFFvcug-15">
          <mxGeometry width="50" height="50" relative="1" as="geometry">
            <mxPoint x="324.5" y="450" as="sourcePoint" />
            <mxPoint x="380" y="440" as="targetPoint" />
          </mxGeometry>
        </mxCell>
        <mxCell id="uqFS4wO_pfEfOHFFvcug-15" value="Summary" style="whiteSpace=wrap;html=1;rounded=1;" vertex="1" parent="1">
          <mxGeometry x="362.5" y="440" width="75.5" height="30" as="geometry" />
        </mxCell>
        <mxCell id="uqFS4wO_pfEfOHFFvcug-18" value="" style="endArrow=classic;html=1;rounded=0;exitX=0.5;exitY=1;exitDx=0;exitDy=0;entryX=0.75;entryY=0;entryDx=0;entryDy=0;" edge="1" parent="1" source="uqFS4wO_pfEfOHFFvcug-12" target="uqFS4wO_pfEfOHFFvcug-15">
          <mxGeometry width="50" height="50" relative="1" as="geometry">
            <mxPoint x="329" y="380" as="sourcePoint" />
            <mxPoint x="397" y="450" as="targetPoint" />
          </mxGeometry>
        </mxCell>
      </root>
    </mxGraphModel>
  </diagram>
</mxfile>
